<svg xmlns="http://www.w3.org/2000/svg" data-name="Layer 1" viewBox="0 0 100 125" x="0px" y="0px"><title>08</title><path d="M86.95,20.68l-7.62-7.62a1.5,1.5,0,0,0-2.12,0L48.83,41.42a1.5,1.5,0,0,0-.34.53l-4.58,12.2a1.5,1.5,0,0,0,1.93,1.93L58,51.51a1.5,1.5,0,0,0,.53-.34L86.95,22.8A1.5,1.5,0,0,0,86.95,20.68ZM56.69,48.82l-8.8,3.3,3.3-8.8L78.26,16.23l5.5,5.5Z"/><path d="M79.41,79.89V54a1.5,1.5,0,0,0-3,0v25.9a4.5,4.5,0,0,1-4.5,4.5H20.11a4.5,4.5,0,0,1-4.5-4.5V28.09a4.5,4.5,0,0,1,4.5-4.5H46a1.5,1.5,0,0,0,0-3H20.11a7.51,7.51,0,0,0-7.5,7.5v51.8a7.51,7.51,0,0,0,7.5,7.5h51.8A7.51,7.51,0,0,0,79.41,79.89Z"/><text x="0" y="115" fill="#000000" font-size="5px" font-weight="bold" font-family="'Helvetica Neue', Helvetica, Arial-Unicode, Arial, Sans-serif">Created by Bhima</text><text x="0" y="120" fill="#000000" font-size="5px" font-weight="bold" font-family="'Helvetica Neue', Helvetica, Arial-Unicode, Arial, Sans-serif">from the Noun Project</text></svg>