<svg xmlns:dc="http://purl.org/dc/elements/1.1/" xmlns:cc="http://creativecommons.org/ns#" xmlns:rdf="http://www.w3.org/1999/02/22-rdf-syntax-ns#" xmlns:svg="http://www.w3.org/2000/svg" xmlns="http://www.w3.org/2000/svg" xmlns:sodipodi="http://sodipodi.sourceforge.net/DTD/sodipodi-0.dtd" xmlns:inkscape="http://www.inkscape.org/namespaces/inkscape" version="1.1" x="0px" y="0px" viewBox="0 0 100 125"><g transform="translate(0,-952.36218)"><path style="text-indent:0;text-transform:none;direction:ltr;block-progression:tb;baseline-shift:baseline;color:#000000;enable-background:accumulate;" d="M 12.6875,958.36217 C 9.02337,958.36217 6,961.3855 6,965.04967 l 0,74.62503 c 0,3.6699 3.02854,6.6875 6.6875,6.6875 l 74.625,0 c 3.66471,0 6.6875,-3.0176 6.6875,-6.6875 l 0,-74.62503 c 0,-3.66417 -3.01764,-6.6875 -6.6875,-6.6875 l -74.625,0 z m 0,4 74.625,0 c 1.48685,0 2.6875,1.21428 2.6875,2.6875 l 0,24.71875 -13,-10.5625 a 2.0002,2.0002 0 0 0 -1.28125,-0.4375 2.0002,2.0002 0 0 0 -1.625,0.84375 L 45.3125,1020.7059 27.15625,1007.3309 A 2.0002,2.0002 0 0 0 24.5,1007.6122 l -14.5,15.9687 0,-58.53123 c 0,-1.47322 1.21485,-2.6875 2.6875,-2.6875 z m 63.46875,21.3125 13.84375,11.25 0,44.75003 c 0,1.4874 -1.1955,2.6875 -2.6875,2.6875 l -74.625,0 c -1.47782,0 -2.6875,-1.2001 -2.6875,-2.6875 l 0,-10.1875 16.25,-17.8438 18.34375,13.5 a 2.0002,2.0002 0 0 0 2.8125,-0.4687 l 28.75,-41.00003 z" fill="#000000" fill-opacity="1" fill-rule="evenodd" stroke="none" marker="none" visibility="visible" display="inline" overflow="visible"/><path style="text-indent:0;text-transform:none;direction:ltr;block-progression:tb;baseline-shift:baseline;color:#000000;enable-background:accumulate;" d="m 29.21875,968.16967 c -6.59971,0 -12,5.38983 -12,12 0,6.60213 5.39787,12 12,12 6.60213,0 12,-5.39787 12,-12 0,-6.61017 -5.40029,-12 -12,-12 z m 0,4 c 4.44029,0 8,3.55017 8,8 0,4.43787 -3.56213,8 -8,8 -4.43787,0 -8,-3.56213 -8,-8 0,-4.44983 3.55971,-8 8,-8 z" fill="#000000" fill-opacity="1" fill-rule="evenodd" stroke="none" marker="none" visibility="visible" display="inline" overflow="visible"/></g><text x="0" y="115" fill="#000000" font-size="5px" font-weight="bold" font-family="'Helvetica Neue', Helvetica, Arial-Unicode, Arial, Sans-serif">Created by andriwidodo</text><text x="0" y="120" fill="#000000" font-size="5px" font-weight="bold" font-family="'Helvetica Neue', Helvetica, Arial-Unicode, Arial, Sans-serif">from the Noun Project</text></svg>