<svg xmlns="http://www.w3.org/2000/svg" xmlns:xlink="http://www.w3.org/1999/xlink" version="1.1" x="0px" y="0px" viewBox="0 0 48 60" enable-background="new 0 0 48 48" xml:space="preserve"><g><path fill="#000000" d="M24.026,16.546c-5.73,0-10.392,4.662-10.392,10.392S18.296,37.33,24.026,37.33s10.392-4.662,10.392-10.392   S29.756,16.546,24.026,16.546z M24.026,35.856c-4.918,0-8.918-4.001-8.918-8.918s4.001-8.918,8.918-8.918s8.918,4.001,8.918,8.918   S28.943,35.856,24.026,35.856z"/><path fill="#000000" d="M46.023,10.885H32.765v-5.15c0-0.407-0.33-0.737-0.737-0.737H16.023c-0.407,0-0.737,0.33-0.737,0.737v5.15   H2.027c-1.002,0-1.819,0.816-1.819,1.819v28.468c0,1.002,0.816,1.819,1.819,1.819h43.996c1.003,0,1.82-0.816,1.82-1.819V12.704   C47.843,11.702,47.027,10.885,46.023,10.885z M46.37,41.172c0,0.191-0.155,0.345-0.346,0.345H2.027   c-0.191,0-0.345-0.154-0.345-0.345V12.704c0-0.191,0.154-0.345,0.345-0.345h13.996c0.407,0,0.737-0.33,0.737-0.737v-5.15h14.531   v5.15c0,0.407,0.33,0.737,0.737,0.737h13.995c0.191,0,0.346,0.154,0.346,0.345V41.172z"/></g><text x="0" y="63" fill="#000000" font-size="5px" font-weight="bold" font-family="'Helvetica Neue', Helvetica, Arial-Unicode, Arial, Sans-serif">Created by Ainsley Wagoner</text><text x="0" y="68" fill="#000000" font-size="5px" font-weight="bold" font-family="'Helvetica Neue', Helvetica, Arial-Unicode, Arial, Sans-serif">from the Noun Project</text></svg>