<svg xmlns="http://www.w3.org/2000/svg" xmlns:xlink="http://www.w3.org/1999/xlink" version="1.1" x="0px" y="0px" viewBox="0 0 100 125" enable-background="new 0 0 100 100" xml:space="preserve"><path d="M32.5,49.5c0,9.926,8.074,18,18,18s18-8.074,18-18s-8.074-18-18-18S32.5,39.574,32.5,49.5z M50.5,35.5  c7.719,0,14,6.281,14,14s-6.281,14-14,14c-7.72,0-14-6.281-14-14S42.78,35.5,50.5,35.5z M88.5,17.5h-38c-1.105,0-2,0.895-2,2  s0.895,2,2,2h38c1.104,0,2,0.896,2,2v52c0,1.104-0.896,2-2,2H69.328l4.586-4.586c0.781-0.781,0.781-2.047,0-2.828  s-2.047-0.781-2.828,0l-8,8c-0.781,0.781-0.781,2.047,0,2.828l8,8c0.391,0.391,0.902,0.586,1.414,0.586s1.023-0.195,1.414-0.586  c0.781-0.781,0.781-2.047,0-2.828L69.328,81.5H88.5c3.309,0,6-2.691,6-6v-52C94.5,20.191,91.809,17.5,88.5,17.5z M50.5,77.5h-38  c-1.104,0-2-0.896-2-2v-52c0-1.104,0.896-2,2-2h19.172l-4.586,4.586c-0.781,0.781-0.781,2.047,0,2.828  c0.391,0.391,0.902,0.586,1.414,0.586s1.023-0.195,1.413-0.586l8-8c0.782-0.781,0.782-2.047,0-2.828l-8-8  c-0.779-0.781-2.047-0.781-2.827,0c-0.781,0.781-0.781,2.047,0,2.828l4.586,4.586H12.5c-3.309,0-6,2.691-6,6v52c0,3.309,2.691,6,6,6  h38c1.105,0,2-0.895,2-2S51.605,77.5,50.5,77.5z"/><text x="0" y="115" fill="#000000" font-size="5px" font-weight="bold" font-family="'Helvetica Neue', Helvetica, Arial-Unicode, Arial, Sans-serif">Created by Sergey Demushkin</text><text x="0" y="120" fill="#000000" font-size="5px" font-weight="bold" font-family="'Helvetica Neue', Helvetica, Arial-Unicode, Arial, Sans-serif">from the Noun Project</text></svg>