<svg xmlns="http://www.w3.org/2000/svg" xmlns:xlink="http://www.w3.org/1999/xlink" viewBox="0 0 30 37.5" version="1.1" x="0px" y="0px"><title>Search</title><desc>Created with Sketch.</desc><g stroke="none" stroke-width="1" fill="none" fill-rule="evenodd"><path d="M12,21.5 C17.2467051,21.5 21.5,17.2467051 21.5,12 C21.5,6.75329488 17.2467051,2.5 12,2.5 C6.75329488,2.5 2.5,6.75329488 2.5,12 C2.5,17.2467051 6.75329488,21.5 12,21.5 Z M20.4532698,19.0390562 L28.2071068,26.7928932 C28.5976311,27.1834175 28.5976311,27.8165825 28.2071068,28.2071068 C27.8165825,28.5976311 27.1834175,28.5976311 26.7928932,28.2071068 L19.0390562,20.4532698 C17.1315623,22.0433765 14.6774969,23 12,23 C5.92486775,23 1,18.0751322 1,12 C1,5.92486775 5.92486775,1 12,1 C18.0751322,1 23,5.92486775 23,12 C23,14.6774969 22.0433765,17.1315623 20.4532698,19.0390562 Z" fill="#000000" fill-rule="nonzero"/></g><text x="0" y="45" fill="#000000" font-size="5px" font-weight="bold" font-family="'Helvetica Neue', Helvetica, Arial-Unicode, Arial, Sans-serif">Created by Riccardo Biasibetti</text><text x="0" y="50" fill="#000000" font-size="5px" font-weight="bold" font-family="'Helvetica Neue', Helvetica, Arial-Unicode, Arial, Sans-serif">from the Noun Project</text></svg>