<svg xmlns="http://www.w3.org/2000/svg" xmlns:xlink="http://www.w3.org/1999/xlink" viewBox="0 0 100 125" version="1.1" x="0px" y="0px"><title>Download s5.3</title><desc>Created with Sketch.</desc><g stroke="none" stroke-width="1" fill="none" fill-rule="evenodd"><g fill="#000000"><path d="M51.7297417,35.029842 L67.3793543,50.8335831 C69.2615852,52.7197381 66.4382388,55.5479705 64.5570059,53.6618155 L52.7074736,41.7885227 C52.3066532,41.3868986 51.9961586,41.5209519 51.9961586,42.0700976 L51.9961586,78.2498357 C51.9961586,79.3549265 51.1019492,80.25 50.0001555,80.25 C48.8973638,80.25 48.0041524,79.3549265 48.0041524,78.2498357 L48.0041524,42.0700976 C48.0041524,41.5191606 47.6856859,41.3948866 47.2928374,41.7885227 L35.4433051,53.6618155 C33.5610742,55.5479705 30.7387258,52.7197381 32.6209567,50.8335831 L48.2056399,35.029842 C49.1737658,34.0481081 50.7545648,34.045061 51.7297417,35.029842 Z M30,24 C28.8954305,24 28,23.1045695 28,22 C28,20.8954305 28.8954305,20 30,20 L70,20 C71.1045695,20 72,20.8954305 72,22 C72,23.1045695 71.1045695,24 70,24 L30,24 Z" transform="translate(50.000000, 50.125000) rotate(-180.000000) translate(-50.000000, -50.125000) "/></g></g><text x="0" y="115" fill="#000000" font-size="5px" font-weight="bold" font-family="'Helvetica Neue', Helvetica, Arial-Unicode, Arial, Sans-serif">Created by Landan Lloyd</text><text x="0" y="120" fill="#000000" font-size="5px" font-weight="bold" font-family="'Helvetica Neue', Helvetica, Arial-Unicode, Arial, Sans-serif">from the Noun Project</text></svg>